<svg width="47" height="49" viewBox="0 0 47 49" fill="none" xmlns="http://www.w3.org/2000/svg">
<path d="M0 8C0 3.58172 3.58172 0 8 0H39C43.4183 0 47 3.58172 47 8V41C47 45.4183 43.4183 49 39 49H8C3.58172 49 0 45.4183 0 41V8Z" fill="url(#paint0_linear_273_209)"/>
<path fill-rule="evenodd" clip-rule="evenodd" d="M14.3984 13.3954C18.2936 6.20152 28.6007 6.20159 32.496 13.3953L32.553 13.5006L37.5014 25.8816C39.1922 29.075 39.4652 32.7176 38.2546 35.6857C36.9883 38.7907 34.1389 41 30.1484 41H16.7459C12.7472 41 9.9248 38.7807 8.69751 35.6622C7.52974 32.6949 7.84378 29.0663 9.52312 25.8904L14.3367 13.5091L14.3984 13.3954ZM18.0818 15.2512L13.2733 27.6194L13.2116 27.7332C11.9693 30.0275 11.8585 32.4389 12.5333 34.1536C13.1632 35.7542 14.5027 36.8794 16.7459 36.8794H30.1484C32.3994 36.8794 33.7794 35.7442 34.4377 34.1301C35.138 32.4132 35.0514 30.0119 33.8175 27.7332L33.7606 27.628L28.8171 15.2592C26.4605 11.077 20.4428 11.0744 18.0818 15.2512Z" fill="#1E1E1E"/>
<path fill-rule="evenodd" clip-rule="evenodd" d="M14.3984 13.3954C18.2936 6.20152 28.6007 6.20159 32.496 13.3953L32.553 13.5006L37.5014 25.8816C39.1922 29.075 39.4652 32.7176 38.2546 35.6857C36.9883 38.7907 34.1389 41 30.1484 41H16.7459C12.7472 41 9.9248 38.7807 8.69751 35.6622C7.52974 32.6949 7.84378 29.0663 9.52312 25.8904L14.3367 13.5091L14.3984 13.3954ZM18.0818 15.2512L13.2733 27.6194L13.2116 27.7332C11.9693 30.0275 11.8585 32.4389 12.5333 34.1536C13.1632 35.7542 14.5027 36.8794 16.7459 36.8794H30.1484C32.3994 36.8794 33.7794 35.7442 34.4377 34.1301C35.138 32.4132 35.0514 30.0119 33.8175 27.7332L33.7606 27.628L28.8171 15.2592C26.4605 11.077 20.4428 11.0744 18.0818 15.2512Z" fill="white"/>
<defs>
<linearGradient id="paint0_linear_273_209" x1="23.5" y1="0" x2="23.5" y2="49" gradientUnits="userSpaceOnUse">
<stop stop-color="#536EA7"/>
<stop offset="1" stop-color="#51BAC0"/>
</linearGradient>
</defs>
</svg>
