<svg width="117" height="32" viewBox="0 0 117 32" fill="none" xmlns="http://www.w3.org/2000/svg">
<path fill-rule="evenodd" clip-rule="evenodd" d="M93.7712 5.56853C97.4484 -1.18965 107.181 -1.18932 110.859 5.56838L110.912 5.66713L115.585 17.2993C117.181 20.2989 117.439 23.7204 116.297 26.5081C115.101 29.4243 112.411 31.5 108.643 31.5H95.9872C92.2112 31.5 89.5466 29.4148 88.3881 26.4859C87.2858 23.6989 87.5822 20.2906 89.1678 17.3074L93.7131 5.67524L93.7712 5.56853ZM97.248 7.3094L92.7074 18.9294L92.6493 19.0362C91.4758 21.1923 91.3709 23.4588 92.0085 25.0708C92.6037 26.5756 93.8692 27.6327 95.9872 27.6327H108.643C110.768 27.6327 112.072 26.5662 112.694 25.0488C113.355 23.4349 113.273 21.178 112.108 19.0365L112.054 18.9377L107.386 7.31691C105.16 3.3864 99.4775 3.38426 97.248 7.3094Z" fill="#F2F2F2"/>
<path fill-rule="evenodd" clip-rule="evenodd" d="M6.03864 5.56964C9.71485 -1.182 19.4425 -1.18193 23.1188 5.56961L23.1726 5.66838L27.8428 17.2884C29.4385 20.2855 29.6962 23.7042 28.5537 26.4899C27.3585 29.404 24.6694 31.4775 20.9032 31.4775H8.25416C4.48033 31.4775 1.81659 29.3946 0.658295 26.4678C-0.443819 23.6829 -0.147434 20.2773 1.43749 17.2967L5.98049 5.67644L6.03864 5.56964ZM9.51497 7.31143L4.97679 18.9194L4.91864 19.0262C3.74619 21.1795 3.64155 23.4426 4.27844 25.052C4.87291 26.5541 6.13708 27.6102 8.25416 27.6102H20.9032C23.0277 27.6102 24.3301 26.5447 24.9514 25.0298C25.6122 23.4185 25.5305 21.1648 24.3661 19.0261L24.3123 18.9274L19.6467 7.31889C17.4226 3.39378 11.7433 3.39137 9.51497 7.31143Z" fill="#F2F2F2"/>
<path d="M33.5269 2.43822H37.4276V17.6589C37.4276 22.0843 41.0709 25.7052 45.5247 25.7052C49.9786 25.7052 53.6218 22.0843 53.6218 17.6589V2.43822H57.5227V17.6592C57.5227 24.2158 52.1238 29.5813 45.5248 29.5813C38.9258 29.5813 33.5269 24.2158 33.5269 17.6592V2.43822Z" fill="#F2F2F2"/>
<path d="M63.6625 29.5813V17.9461H73.8012C77.0202 17.9461 79.6538 15.3295 79.6538 12.1304C79.6538 8.9312 77.0202 6.31453 73.8012 6.31453H63.6625V2.43803H73.8012C79.1647 2.43803 83.5545 6.79959 83.5545 12.1299C83.5545 15.8728 81.3908 19.1379 78.2447 20.7509C78.2502 20.7601 78.2558 20.7692 78.2614 20.7781L83.5545 29.5812H79.0147L74.9139 22.7674L74.9053 22.7529C74.9016 22.7464 74.8973 22.7398 74.8935 22.7333C74.7214 22.4513 74.4782 22.2189 74.1879 22.0592C73.8976 21.8995 73.5704 21.8179 73.2387 21.8226H67.562V29.5813H63.6625Z" fill="#F2F2F2"/>
</svg>
