<svg width="441" height="468" viewBox="0 0 441 468" fill="none" xmlns="http://www.w3.org/2000/svg">
<path fill-rule="evenodd" clip-rule="evenodd" d="M91.0218 76.5159C146.434 -25.5057 293.061 -25.5047 348.475 76.5154L349.286 78.0078L419.681 253.593C443.734 298.881 447.618 350.541 430.397 392.634C412.382 436.669 371.848 468 315.078 468H124.417C67.5331 468 27.3818 436.527 9.92264 392.3C-6.68978 350.218 -2.22231 298.758 21.6676 253.719L90.1453 78.1296L91.0218 76.5159ZM143.421 102.835L75.0164 278.239L74.1398 279.853C56.4671 312.39 54.89 346.588 64.4899 370.906C73.4505 393.605 92.5056 409.563 124.417 409.563H315.078C347.101 409.563 366.733 393.463 376.098 370.572C386.059 346.224 384.827 312.169 367.275 279.852L366.465 278.36L296.139 102.948C262.615 43.6372 177.009 43.6007 143.421 102.835Z" fill="#CECECE" fill-opacity="0.04"/>
</svg>
